<?xml version="1.0" standalone="no"?>
<!DOCTYPE svg PUBLIC "-//W3C//DTD SVG 20010904//EN"
 "http://www.w3.org/TR/2001/REC-SVG-20010904/DTD/svg10.dtd">
<svg version="1.0" xmlns="http://www.w3.org/2000/svg"
 width="512.000000pt" height="512.000000pt" viewBox="0 0 512.000000 512.000000"
 preserveAspectRatio="xMidYMid meet">

<g transform="translate(0.000000,512.000000) scale(0.100000,-0.100000)"
fill="#000000" stroke="none">
<path d="M386 5105 c-83 -29 -148 -104 -165 -187 -8 -38 -11 -684 -9 -2218 l3
-2165 23 -47 c27 -55 89 -112 139 -129 31 -10 41 -25 113 -169 44 -87 89 -165
102 -174 19 -14 71 -16 389 -16 344 0 368 1 390 19 13 10 58 87 99 170 l74
151 121 0 121 0 74 -151 c41 -83 86 -160 99 -170 22 -18 46 -19 390 -19 298 0
370 3 386 14 11 8 56 86 99 174 70 141 83 160 111 171 59 21 111 67 139 122
l26 53 0 1388 c0 763 3 1388 6 1388 3 0 24 -13 47 -29 23 -16 62 -41 86 -56
l43 -27 -3 -1396 c-2 -1385 -2 -1398 18 -1459 68 -207 258 -343 478 -343 245
0 460 172 511 409 11 55 14 298 14 1431 l0 1365 58 34 c193 115 361 306 447
511 149 354 111 742 -103 1064 -58 88 -199 232 -246 251 -76 32 -167 5 -213
-64 -22 -32 -23 -44 -23 -201 0 -92 -3 -261 -7 -376 l-6 -209 -208 -173 c-137
-114 -213 -171 -221 -166 -7 5 -104 84 -215 177 l-203 169 0 362 c0 355 0 363
-22 406 -32 63 -85 92 -160 87 -41 -2 -65 -10 -90 -29 l-33 -25 -39 33 c-78
68 2 64 -1365 64 -1035 -1 -1242 -3 -1275 -15z m2513 -170 c44 -22 44 -40 1
-98 -22 -28 -60 -90 -85 -137 l-44 -85 -1 52 c0 66 -6 80 -41 98 -24 13 -174
15 -1063 15 -661 0 -1044 -4 -1061 -10 -58 -22 -55 97 -55 -2038 0 -1408 3
-1968 11 -1991 23 -64 -37 -61 1108 -61 l1039 0 31 26 31 26 2 1511 3 1512 39
-75 c21 -41 58 -103 82 -137 l44 -62 0 -1454 c0 -801 -3 -1463 -6 -1472 -18
-46 15 -45 -1268 -45 -774 0 -1214 4 -1231 10 -59 22 -55 -116 -53 2231 l3
2151 28 24 28 24 1215 0 c1047 0 1219 -2 1243 -15z m327 -802 c23 -31 404
-356 473 -403 52 -35 122 -41 173 -14 53 27 482 390 503 426 19 31 20 56 25
398 l5 365 63 -64 c230 -233 321 -577 235 -896 -24 -90 -96 -238 -154 -316
-70 -94 -173 -186 -277 -247 -48 -28 -96 -57 -107 -65 -20 -15 -20 -29 -25
-1448 l-5 -1434 -26 -56 c-37 -79 -90 -133 -167 -171 -60 -30 -75 -33 -157
-33 -78 0 -97 4 -147 28 -62 30 -115 83 -150 149 l-23 43 -5 1446 c-5 1429 -5
1447 -25 1469 -11 12 -45 35 -75 50 -75 38 -174 112 -239 179 -256 267 -333
676 -188 1011 53 122 94 184 182 278 l80 85 5 -376 c5 -360 6 -377 26 -404z
m-626 -1403 l0 -1880 -935 0 -935 0 0 1880 0 1880 935 0 935 0 0 -1880z
m-1250 -2395 c0 -3 -18 -41 -40 -85 l-40 -80 -288 0 -288 0 -42 85 -42 85 370
0 c204 0 370 -2 370 -5z m1328 -80 l-42 -85 -288 0 -288 0 -40 80 c-22 44 -40
82 -40 85 0 3 166 5 370 5 l370 0 -42 -85z"/>
<path d="M3743 916 l-28 -24 -3 -188 c-2 -103 -1 -198 2 -211 16 -62 96 -84
141 -38 25 24 25 25 25 227 -1 212 -3 223 -47 246 -33 18 -59 14 -90 -12z"/>
<path d="M1509 4335 c-183 -36 -354 -148 -465 -302 -96 -133 -144 -283 -144
-450 0 -358 236 -655 590 -744 110 -28 287 -23 395 11 342 108 566 429 542
780 -17 247 -144 464 -349 597 -38 25 -95 55 -126 68 -129 52 -303 68 -443 40z
m98 -202 c21 -51 38 -153 30 -184 -5 -20 -16 -28 -51 -36 l-44 -10 -41 48
c-23 26 -68 65 -101 86 -33 21 -60 40 -60 43 -1 20 173 89 223 90 23 0 31 -7
44 -37z m337 -27 c78 -42 85 -54 61 -107 -26 -56 -69 -114 -99 -134 -23 -15
-27 -15 -64 6 l-39 23 4 60 c5 54 -4 129 -23 193 l-6 23 53 -16 c30 -9 81 -30
113 -48z m-671 -192 c48 -25 82 -53 106 -85 l22 -29 -26 -37 -25 -37 -77 2
c-45 2 -101 -3 -133 -12 -30 -8 -57 -13 -59 -11 -10 11 43 139 85 207 26 41
31 41 107 2z m928 -77 c16 -34 34 -85 41 -115 11 -50 10 -56 -7 -69 -32 -22
-114 -43 -175 -43 l-55 0 -11 47 -11 47 56 52 c31 28 69 74 86 102 16 28 34
48 38 45 5 -3 22 -33 38 -66z m-450 -110 c99 -67 107 -203 16 -278 -86 -70
-222 -31 -262 76 -30 77 6 173 76 208 50 25 129 22 170 -6z m-419 -219 l8 -46
-59 -57 c-32 -31 -69 -76 -82 -100 -13 -25 -28 -45 -32 -45 -11 0 -73 137 -82
180 -3 19 -9 42 -11 51 -3 12 9 22 43 37 66 28 80 30 148 29 l60 -2 7 -47z
m901 -90 c-16 -54 -60 -148 -86 -182 -14 -20 -16 -19 -78 11 -35 18 -82 50
-103 72 l-40 41 21 37 22 38 108 6 c59 4 119 11 133 17 39 17 40 15 23 -40z
m-746 -123 l33 -20 0 -85 c0 -47 6 -109 14 -138 7 -29 10 -52 6 -52 -18 0
-126 42 -171 66 -75 41 -76 45 -40 118 29 58 103 142 119 134 4 -2 22 -12 39
-23z m355 -93 c31 -32 77 -69 102 -83 25 -13 46 -27 46 -31 0 -13 -125 -67
-188 -82 l-61 -14 -22 47 c-17 35 -23 65 -23 126 l-1 80 30 6 c54 12 59 10
117 -49z"/>
<path d="M1577 2639 c-91 -9 -224 -53 -305 -100 -31 -19 -98 -75 -149 -125
-80 -80 -97 -103 -141 -195 -68 -139 -86 -228 -80 -378 4 -90 11 -134 32 -196
86 -253 275 -434 533 -507 61 -17 104 -22 198 -22 143 0 234 22 359 87 114 58
255 199 313 312 58 113 83 203 90 320 27 476 -369 851 -850 804z m33 -221 c28
-65 39 -178 19 -194 -8 -6 -30 -14 -49 -18 -33 -6 -39 -2 -90 49 -30 31 -76
70 -102 87 -27 16 -48 32 -48 34 0 16 189 91 236 93 6 1 22 -23 34 -51z m320
-11 c63 -31 86 -48 88 -64 5 -32 -40 -112 -91 -161 l-44 -43 -39 26 -38 26 2
72 c3 66 -6 135 -24 181 -6 16 -3 17 27 12 19 -4 72 -26 119 -49z m-649 -204
c26 -14 64 -42 84 -63 l37 -38 -24 -41 -23 -41 -91 0 c-50 0 -112 -6 -138 -14
l-47 -14 7 31 c9 42 57 149 84 188 25 34 35 33 111 -8z m928 -88 c17 -41 34
-94 37 -118 l6 -44 -48 -20 c-58 -24 -134 -37 -172 -28 -23 5 -29 13 -38 50
l-10 44 50 44 c28 24 67 71 86 104 25 44 38 58 47 51 6 -5 26 -43 42 -83z
m-473 -84 c59 -27 87 -72 92 -146 3 -50 0 -65 -20 -94 -33 -49 -69 -72 -121
-78 -60 -7 -110 11 -146 52 -79 90 -53 218 53 266 52 23 90 23 142 0z m-402
-228 c6 -46 5 -47 -42 -92 -49 -46 -112 -131 -112 -150 0 -53 -72 83 -94 178
l-15 63 42 18 c66 28 68 28 143 29 l71 1 7 -47z m899 -95 c-18 -61 -52 -132
-80 -167 -18 -22 -22 -23 -55 -12 -50 16 -124 67 -148 102 l-21 28 23 40 23
39 65 -4 c37 -3 90 1 125 9 90 21 86 24 68 -35z m-747 -119 l34 -21 0 -81 c0
-76 6 -119 24 -174 l7 -22 -53 15 c-52 15 -144 61 -182 89 -17 13 -17 16 8 72
25 54 99 143 119 143 5 0 25 -9 43 -21z m356 -93 c35 -35 83 -73 106 -85 24
-12 40 -26 36 -32 -11 -18 -125 -68 -183 -80 -49 -10 -56 -9 -68 7 -22 31 -43
114 -43 174 l0 57 43 10 c23 6 43 11 44 12 0 0 30 -28 65 -63z"/>
</g>
</svg>
