<?xml version="1.0" standalone="no"?>
<!DOCTYPE svg PUBLIC "-//W3C//DTD SVG 20010904//EN"
 "http://www.w3.org/TR/2001/REC-SVG-20010904/DTD/svg10.dtd">
<svg version="1.0" xmlns="http://www.w3.org/2000/svg"
 width="512.000000pt" height="512.000000pt" viewBox="0 0 512.000000 512.000000"
 preserveAspectRatio="xMidYMid meet">

<g transform="translate(0.000000,512.000000) scale(0.100000,-0.100000)"
fill="#000000" stroke="none">
<path d="M265 4855 l-25 -24 0 -2111 0 -2111 25 -24 c23 -24 29 -25 160 -25
l135 0 0 -135 c0 -131 1 -137 25 -160 l24 -25 351 0 351 0 24 25 c24 23 25 29
25 160 l0 135 1200 0 1200 0 0 -135 c0 -131 1 -137 25 -160 l24 -25 351 0 351
0 24 25 c24 23 25 29 25 160 l0 135 135 0 c131 0 137 1 160 25 l25 24 0 2111
0 2111 -25 24 -24 25 -2271 0 -2271 0 -24 -25z m4135 -215 l0 -80 -2000 0
-2000 0 0 80 0 80 2000 0 2000 0 0 -80z m320 -1920 l0 -2000 -80 0 -80 0 0
2000 0 2000 80 0 80 0 0 -2000z m-2880 1425 l0 -255 -720 0 -720 0 0 255 0
255 720 0 720 0 0 -255z m1430 175 l0 -80 -84 0 c-75 0 -88 -3 -113 -24 l-28
-24 0 -272 0 -272 28 -24 c25 -21 38 -24 113 -24 l84 0 0 -320 0 -320 -84 0
c-75 0 -88 -3 -113 -24 l-28 -24 0 -192 0 -192 28 -24 c25 -21 38 -24 113 -24
l84 0 0 -240 0 -240 -90 0 c-83 0 -93 -2 -115 -25 -21 -20 -25 -34 -25 -80 l0
-55 -40 0 -40 0 0 776 c0 571 -3 787 -12 816 -6 22 -31 62 -55 88 -66 74 -95
80 -354 80 l-217 0 -4 168 c-3 149 -6 171 -25 209 -44 82 -138 133 -245 133
l-48 0 0 145 0 145 635 0 635 0 0 -80z m1130 -1600 l0 -1680 -485 0 -485 0 0
1680 0 1680 485 0 485 0 0 -1680z m-1130 1200 l0 -160 -35 0 -35 0 0 160 0
160 35 0 35 0 0 -160z m-1133 -4 c22 -26 23 -35 23 -172 l0 -144 -696 0 c-518
0 -707 -3 -738 -12 -55 -16 -138 -99 -154 -154 -17 -60 -17 -2008 0 -2068 16
-55 99 -138 154 -154 31 -9 284 -12 1036 -12 1128 0 1055 -5 1131 80 57 64 67
101 67 264 l0 136 39 0 39 0 4 -57 c4 -46 10 -61 32 -80 24 -20 38 -23 112
-23 l84 0 0 -240 0 -240 -1435 0 -1435 0 0 1345 0 1345 775 0 776 0 24 25 c23
22 25 32 25 111 l0 86 57 -4 c46 -4 61 -10 80 -32z m23 -692 c0 -257 5 -279
75 -349 56 -57 102 -75 189 -75 l56 0 0 -135 c0 -131 1 -137 25 -160 32 -33
78 -33 110 0 l25 24 0 351 0 351 -25 24 c-32 33 -78 33 -110 0 -24 -23 -25
-29 -25 -160 l0 -135 -55 0 c-46 0 -60 4 -80 25 -25 24 -25 24 -25 240 l0 215
215 0 c216 0 216 0 240 -25 l25 -24 0 -776 0 -775 -79 0 -80 0 -3 189 c-3 173
-5 192 -24 217 -48 65 -61 69 -239 72 -164 3 -165 3 -190 -22 -33 -33 -33 -79
0 -111 23 -24 29 -25 159 -25 l135 0 3 -189 c3 -173 5 -192 24 -217 44 -60 67
-69 185 -72 l109 -4 0 -134 c0 -130 -1 -136 -25 -159 l-24 -25 -991 0 -991 0
-24 25 -25 24 0 991 0 991 25 24 24 25 696 0 695 0 0 -216z m1110 -504 l0 -80
-35 0 -35 0 0 80 0 80 35 0 35 0 0 -80z m0 -960 l0 -80 -35 0 -35 0 0 80 0 80
35 0 35 0 0 -80z m1130 -960 l0 -80 -2000 0 -2000 0 0 80 0 80 2000 0 2000 0
0 -80z m-3200 -320 l0 -80 -240 0 -240 0 0 80 0 80 240 0 240 0 0 -80z m3200
0 l0 -80 -240 0 -240 0 0 80 0 80 240 0 240 0 0 -80z"/>
<path d="M3579 3731 c-16 -16 -29 -39 -29 -51 0 -12 13 -35 29 -51 29 -28 32
-29 130 -29 90 0 102 2 127 23 20 17 27 33 27 57 0 24 -7 40 -27 57 -25 21
-37 23 -127 23 -98 0 -101 -1 -130 -29z"/>
<path d="M3996 3739 c-37 -29 -37 -89 0 -118 23 -18 41 -21 126 -21 111 0 130
6 148 50 10 24 10 36 0 60 -18 44 -37 50 -148 50 -85 0 -103 -3 -126 -21z"/>
<path d="M3579 2771 c-16 -16 -29 -39 -29 -51 0 -12 13 -35 29 -51 29 -28 32
-29 130 -29 90 0 102 2 127 23 20 17 27 33 27 57 0 24 -7 40 -27 57 -25 21
-37 23 -127 23 -98 0 -101 -1 -130 -29z"/>
<path d="M3996 2779 c-37 -29 -37 -89 0 -118 23 -18 41 -21 126 -21 111 0 130
6 148 50 10 24 10 36 0 60 -18 44 -37 50 -148 50 -85 0 -103 -3 -126 -21z"/>
<path d="M3579 1811 c-16 -16 -29 -39 -29 -51 0 -12 13 -35 29 -51 29 -28 32
-29 130 -29 90 0 102 2 127 23 20 17 27 33 27 57 0 24 -7 40 -27 57 -25 21
-37 23 -127 23 -98 0 -101 -1 -130 -29z"/>
<path d="M3996 1819 c-37 -29 -37 -89 0 -118 23 -18 41 -21 126 -21 111 0 130
6 148 50 10 24 10 36 0 60 -18 44 -37 50 -148 50 -85 0 -103 -3 -126 -21z"/>
<path d="M870 3327 c-50 -26 -50 -22 -47 -619 l2 -557 23 -23 23 -23 569 0
569 0 23 23 23 23 0 569 0 569 -23 23 -23 23 -557 2 c-434 2 -562 0 -582 -10z
m1025 -607 l0 -455 -455 0 -455 0 -3 445 c-1 245 0 451 3 458 3 10 100 12 457
10 l453 -3 0 -455z"/>
<path d="M1350 3146 c-223 -48 -376 -265 -342 -484 15 -93 50 -168 112 -234
172 -188 446 -194 625 -14 175 175 175 438 1 612 -68 68 -141 107 -230 123
-72 13 -95 13 -166 -3z m237 -192 c40 -23 78 -64 101 -109 10 -19 7 -20 -88
-22 l-98 -1 -5 41 c-3 23 -3 61 0 85 7 49 15 49 90 6z m-250 -73 l1 -99 -41
-5 c-23 -3 -61 -3 -85 0 -37 5 -42 8 -36 27 13 48 63 113 108 144 27 17 49 32
50 32 0 0 2 -44 3 -99z m372 -227 c2 -2 -8 -28 -23 -58 -27 -55 -65 -94 -115
-120 l-26 -14 -2 98 -1 99 31 4 c32 4 129 -2 136 -9z m-326 -78 c3 -22 3 -60
0 -84 -5 -38 -8 -42 -27 -36 -65 20 -129 71 -155 123 l-19 36 98 1 98 2 5 -42z"/>
</g>
</svg>
