<?xml version="1.0" standalone="no"?>
<!DOCTYPE svg PUBLIC "-//W3C//DTD SVG 20010904//EN"
 "http://www.w3.org/TR/2001/REC-SVG-20010904/DTD/svg10.dtd">
<svg version="1.0" xmlns="http://www.w3.org/2000/svg"
 width="512.000000pt" height="512.000000pt" viewBox="0 0 512.000000 512.000000"
 preserveAspectRatio="xMidYMid meet">

<g transform="translate(0.000000,512.000000) scale(0.100000,-0.100000)"
fill="#000000" stroke="none">
<path d="M237 4959 c-62 -15 -112 -45 -159 -98 -85 -94 -79 64 -76 -1871 l3
-1715 27 -51 c32 -60 93 -118 157 -148 46 -21 51 -21 943 -24 l898 -3 0 -103
0 -104 -227 -4 c-205 -4 -234 -7 -285 -27 -75 -29 -149 -99 -185 -176 -27 -58
-28 -67 -31 -245 -4 -174 -3 -187 16 -210 l20 -25 1222 0 1222 0 20 25 c19 23
20 36 16 210 -3 178 -4 187 -31 245 -36 77 -110 147 -185 176 -51 20 -80 23
-284 27 l-228 4 0 104 0 104 438 0 437 0 170 -297 c197 -343 209 -361 268
-401 202 -140 485 -14 505 223 8 109 -2 142 -98 310 -50 86 -90 157 -90 159 0
2 39 6 86 10 49 3 105 14 129 25 59 26 122 86 153 145 l27 51 0 1735 0 1735
-27 50 c-34 64 -90 118 -153 147 l-50 23 -2305 2 c-1323 0 -2321 -3 -2343 -8z
m4665 -157 c21 -13 45 -40 57 -66 21 -42 21 -44 21 -1726 0 -1659 0 -1684 -20
-1724 -11 -23 -36 -52 -56 -65 -32 -22 -49 -25 -153 -29 l-116 -4 -52 90 c-29
50 -53 93 -53 95 0 3 50 7 111 9 102 3 112 5 130 27 19 23 19 63 19 1601 0
1539 0 1578 -19 1601 l-19 24 -2192 0 -2192 0 -19 -24 c-19 -23 -19 -62 -19
-1601 0 -1539 0 -1578 19 -1601 l19 -24 1704 -3 1703 -3 52 -92 52 -92 -1767
-3 c-972 -2 -1791 0 -1820 3 -61 7 -116 48 -138 102 -12 27 -14 324 -14 1715
0 1675 0 1682 20 1724 21 43 53 70 99 84 14 5 1057 8 2316 7 l2290 -2 37 -23z
m-252 -1792 l0 -1490 -104 0 -103 0 -73 126 c-77 134 -100 156 -144 136 -23
-10 -27 -7 -69 65 l-45 76 62 71 c146 167 227 328 272 536 26 120 24 324 -4
447 -110 488 -522 839 -1020 869 -516 31 -988 -310 -1127 -816 -33 -118 -45
-336 -25 -457 36 -227 140 -432 303 -600 139 -143 317 -247 514 -300 89 -24
115 -27 278 -27 149 0 192 4 253 21 51 14 75 16 81 9 27 -35 80 -139 76 -147
-4 -5 -656 -9 -1656 -9 l-1649 0 0 1490 0 1490 2090 0 2090 0 0 -1490z m-1050
667 c287 -74 507 -257 634 -528 68 -144 90 -246 89 -409 0 -112 -5 -152 -27
-234 -60 -230 -199 -429 -389 -558 -82 -56 -208 -114 -302 -140 -111 -30 -354
-32 -465 -4 -349 90 -601 330 -707 673 -24 80 -27 103 -27 258 -1 148 2 181
22 254 141 515 661 820 1172 688z m452 -1928 l28 -48 -87 -50 -87 -49 -39 64
c-21 36 -36 68 -33 71 3 3 41 27 83 53 89 53 80 56 135 -41z m447 -604 l273
-475 -4 -64 c-3 -51 -10 -71 -32 -101 -33 -43 -95 -75 -146 -75 -43 0 -108 29
-136 61 -11 13 -135 222 -274 464 -139 242 -259 449 -266 460 -13 20 -5 26
144 112 86 51 159 92 162 92 3 0 128 -213 279 -474z m-1549 -200 l0 -105 -390
0 -390 0 0 105 0 105 390 0 390 0 0 -105z m616 -272 c52 -28 90 -72 104 -121
5 -20 10 -88 10 -149 l0 -113 -1121 0 -1121 0 4 133 c2 110 6 138 23 166 29
49 84 90 136 100 24 5 467 8 984 8 l940 -2 41 -22z"/>
<path d="M987 4313 c-35 -9 -47 -55 -47 -182 l0 -119 -136 -4 c-187 -4 -174
19 -174 -305 l0 -254 25 -24 c23 -24 29 -25 154 -25 l129 0 4 -136 c4 -188
-20 -174 308 -174 l259 0 20 26 c19 24 21 40 21 155 l0 129 129 0 c115 0 131
2 155 21 l26 20 0 259 c0 328 14 304 -174 308 l-136 4 0 129 c0 125 -1 131
-25 154 l-24 25 -248 -1 c-136 -1 -256 -3 -266 -6z m423 -266 c0 -184 -7 -177
171 -177 l139 0 0 -165 0 -165 -135 0 c-122 0 -137 -2 -155 -20 -18 -18 -20
-33 -20 -155 l0 -135 -165 0 -165 0 0 139 c0 178 7 171 -177 171 l-133 0 2
163 3 162 135 3 c177 4 170 -4 170 167 0 72 3 135 7 138 3 4 78 7 165 7 l158
0 0 -133z"/>
<path d="M630 2850 l0 -70 640 0 640 0 0 70 0 70 -640 0 -640 0 0 -70z"/>
<path d="M637 2583 c-4 -3 -7 -35 -7 -70 l0 -63 640 0 640 0 0 70 0 70 -633 0
c-349 0 -637 -3 -640 -7z"/>
<path d="M630 2180 l0 -70 640 0 640 0 0 70 0 70 -640 0 -640 0 0 -70z"/>
<path d="M630 1840 l0 -70 918 2 917 3 3 68 3 67 -921 0 -920 0 0 -70z"/>
<path d="M3418 3359 c-10 -5 -22 -18 -27 -27 -5 -9 -35 -182 -67 -384 -32
-203 -61 -368 -64 -368 -3 0 -29 72 -58 159 -58 175 -79 211 -121 211 -38 0
-61 -29 -109 -135 l-41 -90 -166 -3 -165 -2 0 -70 0 -70 207 2 208 3 27 50
c23 42 29 47 34 30 3 -11 38 -114 78 -229 58 -171 76 -213 98 -229 23 -17 31
-18 57 -8 16 7 34 25 40 39 5 15 34 179 63 365 32 209 55 332 60 320 4 -10 24
-83 44 -163 19 -80 43 -153 51 -162 14 -16 39 -18 225 -18 l208 0 0 70 0 70
-165 0 -164 0 -10 38 c-5 20 -40 156 -77 302 -69 273 -84 310 -128 310 -12 0
-29 -5 -38 -11z"/>
</g>
</svg>
